<?xml version="1.0" encoding="UTF-8"?>
<svg id="Layer_1" data-name="Layer 1" xmlns="http://www.w3.org/2000/svg" xmlns:xlink="http://www.w3.org/1999/xlink" viewBox="0 0 894.55 310.42">
  <defs>
    <style>
      .cls-1 {
        stroke: #0d0d0d;
        stroke-miterlimit: 10;
      }
    </style>
  </defs>
  <path d="M654.26,302.89c-3.92,0-7.29-.73-10.12-2.18-2.82-1.45-5.38-3.66-7.67-6.62l6.3-6.77c1.49,2.06,3.19,3.65,5.08,4.78s4.21,1.69,6.97,1.69c2.47,0,4.43-.53,5.88-1.58,1.45-1.05,2.17-2.51,2.17-4.36,0-1.6-.42-2.91-1.26-3.91-.84-1-1.95-1.84-3.33-2.52-1.38-.68-2.89-1.3-4.55-1.88-1.66-.58-3.3-1.24-4.94-1.99-1.63-.75-3.15-1.7-4.55-2.86-1.4-1.15-2.51-2.61-3.33-4.36-.82-1.75-1.23-4.01-1.23-6.77,0-3.21.72-5.94,2.17-8.2,1.45-2.26,3.43-3.99,5.95-5.19,2.52-1.2,5.37-1.81,8.54-1.81,3.36,0,6.41.68,9.14,2.03,2.73,1.35,4.94,3.11,6.62,5.27l-6.3,6.77c-1.45-1.7-2.93-2.96-4.45-3.76-1.52-.8-3.23-1.2-5.15-1.2-2.19,0-3.92.46-5.18,1.39-1.26.93-1.89,2.22-1.89,3.87,0,1.46.42,2.62,1.26,3.5.84.88,1.95,1.65,3.33,2.33,1.38.68,2.91,1.32,4.59,1.92s3.34,1.29,4.97,2.07c1.63.78,3.14,1.76,4.52,2.93,1.38,1.18,2.49,2.71,3.33,4.59.84,1.88,1.26,4.2,1.26,6.96,0,4.92-1.61,8.79-4.83,11.62-3.22,2.83-7.66,4.25-13.3,4.25Z"/>
  <path d="M679.89,302.06v-52.88h9.52v52.88h-9.52ZM686.89,282.51v-8.35h11.41c1.49,0,2.85-.34,4.06-1.02,1.21-.68,2.16-1.63,2.83-2.86.68-1.23,1.02-2.72,1.02-4.48s-.34-3.17-1.02-4.4c-.68-1.23-1.62-2.18-2.83-2.86-1.21-.68-2.57-1.02-4.06-1.02h-11.41v-8.35h12.39c3.13,0,5.94.68,8.44,2.03,2.5,1.35,4.47,3.27,5.92,5.75,1.45,2.48,2.17,5.43,2.17,8.84s-.72,6.37-2.17,8.88c-1.45,2.51-3.42,4.44-5.92,5.79-2.5,1.35-5.31,2.03-8.44,2.03h-12.39Z"/>
  <path d="M779.03,302.06v-52.88h9.52v52.88h-9.52ZM786.03,280.02v-8.05h11.34c2.38,0,4.2-.64,5.46-1.92,1.26-1.28,1.89-3.02,1.89-5.23s-.63-3.85-1.89-5.23c-1.26-1.38-3.06-2.07-5.39-2.07h-11.41v-8.35h12.32c3.13,0,5.89.67,8.3,1.99,2.4,1.33,4.27,3.15,5.6,5.45,1.33,2.31,2,4.96,2,7.97s-.67,5.8-2,8.09c-1.33,2.28-3.21,4.08-5.64,5.38s-5.25,1.96-8.47,1.96h-12.11ZM805.91,302.06l-16.31-22.87,8.82-2.93,19.04,25.8h-11.55Z"/>
  <path d="M817.33,258.29v-9.1h40.96v9.1h-40.96ZM833.01,302.06v-51.75h9.59v51.75h-9.59Z"/>
  <path d="M876.42,302.89c-3.92,0-7.29-.73-10.12-2.18-2.82-1.45-5.38-3.66-7.67-6.62l6.3-6.77c1.49,2.06,3.19,3.65,5.08,4.78s4.21,1.69,6.97,1.69c2.47,0,4.43-.53,5.88-1.58,1.45-1.05,2.17-2.51,2.17-4.36,0-1.6-.42-2.91-1.26-3.91-.84-1-1.95-1.84-3.33-2.52-1.38-.68-2.89-1.3-4.55-1.88-1.66-.58-3.3-1.24-4.94-1.99-1.63-.75-3.15-1.7-4.55-2.86-1.4-1.15-2.51-2.61-3.33-4.36-.82-1.75-1.23-4.01-1.23-6.77,0-3.21.72-5.94,2.17-8.2,1.45-2.26,3.43-3.99,5.95-5.19,2.52-1.2,5.37-1.81,8.54-1.81,3.36,0,6.41.68,9.14,2.03,2.73,1.35,4.94,3.11,6.62,5.27l-6.3,6.77c-1.45-1.7-2.93-2.96-4.45-3.76-1.52-.8-3.23-1.2-5.15-1.2-2.19,0-3.92.46-5.18,1.39-1.26.93-1.89,2.22-1.89,3.87,0,1.46.42,2.62,1.26,3.5.84.88,1.95,1.65,3.33,2.33,1.38.68,2.91,1.32,4.59,1.92s3.34,1.29,4.97,2.07c1.63.78,3.14,1.76,4.52,2.93,1.38,1.18,2.49,2.71,3.33,4.59.84,1.88,1.26,4.2,1.26,6.96,0,4.92-1.61,8.79-4.83,11.62-3.22,2.83-7.66,4.25-13.3,4.25Z"/>
  <path class="cls-1" d="M180.56,55.69l-103.05-.26s-18.74,2.62-21.53,24.93c0,0-.23,19.53,20.92,25.81l44.9.81-50.48,52.54-24.59-8.2-15.34-9.94-11.68-12.21-8.2-13.78-6.97-20.58-.87-15.73,1.39-15.83,5.23-16.04,10.81-18.13,11.33-10.81,15.52-9.76,14.47-5.93,16.22-2.09h155.02l-53.1,55.19Z"/>
  <polygon points="166.26 87.69 185.14 92.78 202.57 103.43 218.8 119.89 226.06 134.18 230.42 145.8 232.6 158.63 232.6 171.71 230.66 184.78 225.33 201.01 212.74 218.2 198.94 230.79 180.54 239.99 164.32 244.35 5 244.35 56.09 192.05 147.61 192.05 163.84 191.08 170.61 187.69 177.88 179.94 180.54 171.71 180.54 160.56 177.39 152.82 169.4 145.32 159.96 141.44 114.68 141.44 166.26 87.69"/>
  <g>
    <path d="M284.06,233.64V6.69h40.87v226.95h-40.87ZM310.2,135.83v-38.74h117.79v38.74h-117.79ZM416.57,233.64V6.69h40.87v226.95h-40.87Z"/>
    <path d="M484.78,233.64L570.12,6.69h33.65l84.44,226.95h-43.57l-65.5-185.95h15.02l-66.11,185.95h-43.27ZM530.15,191.35v-36.8h113.58v36.8h-113.58Z"/>
    <path d="M713.15,233.64V6.69h40.87v226.95h-40.87ZM739.29,135.83v-38.74h117.79v38.74h-117.79ZM845.66,233.64V6.69h40.87v226.95h-40.87Z"/>
  </g>
  <g>
    <g>
      <path d="M443.42,285.53c-1.91,0-3.55-.38-4.92-1.14-1.37-.76-2.58-1.86-3.65-3.31l2.27-2.43c.78,1.17,1.68,2.05,2.69,2.64,1.01.6,2.27.89,3.75.89s2.64-.34,3.52-1.03,1.33-1.62,1.33-2.82c0-.99-.22-1.79-.65-2.4-.44-.61-1.01-1.11-1.72-1.5-.71-.39-1.49-.74-2.34-1.05-.85-.3-1.7-.64-2.55-1.01-.85-.37-1.63-.83-2.35-1.39-.72-.56-1.29-1.27-1.72-2.15s-.64-2-.64-3.37c0-1.5.34-2.77,1.01-3.82.67-1.05,1.59-1.86,2.76-2.43s2.48-.86,3.95-.86c1.6,0,3.04.34,4.32,1.01,1.27.67,2.31,1.55,3.12,2.64l-2.27,2.43c-.73-.91-1.52-1.6-2.35-2.05-.84-.46-1.8-.68-2.89-.68-1.32,0-2.37.31-3.15.93-.78.62-1.17,1.49-1.17,2.61,0,.89.22,1.6.65,2.15.44.55,1.01,1.01,1.72,1.39.71.38,1.49.73,2.35,1.05.86.32,1.72.67,2.57,1.05.85.38,1.63.86,2.34,1.45.71.58,1.28,1.34,1.72,2.26.44.93.65,2.09.65,3.48,0,2.33-.75,4.16-2.25,5.48-1.5,1.32-3.54,1.98-6.11,1.98Z"/>
      <path d="M457.33,263.46c-.59,0-1.08-.21-1.45-.63-.38-.42-.57-.94-.57-1.58s.19-1.12.57-1.54c.38-.42.86-.63,1.45-.63s1.07.21,1.45.63c.38.42.57.93.57,1.54s-.19,1.16-.57,1.58c-.38.42-.86.63-1.45.63ZM455.7,285.14v-18.07h3.22v18.07h-3.22Z"/>
      <path d="M463.63,285.14v-18.07h3.19v18.07h-3.19ZM475.49,285.14v-10.54c0-1.37-.4-2.5-1.19-3.39-.79-.89-1.82-1.33-3.1-1.33-.85,0-1.61.2-2.27.61-.66.41-1.18.96-1.56,1.67-.38.71-.57,1.52-.57,2.43l-1.31-.8c0-1.37.28-2.59.85-3.65.57-1.06,1.36-1.91,2.37-2.53s2.16-.93,3.43-.93,2.4.34,3.38,1.03c.98.68,1.75,1.58,2.32,2.68.57,1.1.85,2.28.85,3.52v11.22h-3.22Z"/>
      <path d="M490.72,285.53c-1.65,0-3.15-.42-4.48-1.26-1.33-.84-2.38-1.97-3.15-3.4-.77-1.43-1.15-3.02-1.15-4.77s.38-3.37,1.15-4.79c.77-1.42,1.82-2.54,3.15-3.37,1.33-.82,2.83-1.24,4.48-1.24,1.3,0,2.5.26,3.61.78,1.11.52,2.07,1.27,2.87,2.26l-2.12,2.28c-.52-.66-1.16-1.16-1.91-1.5-.76-.34-1.57-.51-2.44-.51-1.06,0-2.01.26-2.83.78-.83.52-1.47,1.24-1.95,2.15s-.71,1.97-.71,3.16.24,2.24.71,3.16,1.12,1.64,1.95,2.17c.83.53,1.77.8,2.83.8.9,0,1.72-.17,2.46-.51.74-.34,1.39-.84,1.93-1.5l2.09,2.28c-.78.96-1.73,1.71-2.85,2.25-1.12.53-2.33.8-3.63.8Z"/>
      <path d="M507.82,285.53c-1.7,0-3.22-.41-4.55-1.24-1.33-.82-2.39-1.95-3.17-3.37-.78-1.42-1.17-3.03-1.17-4.83s.38-3.37,1.15-4.79c.77-1.42,1.81-2.54,3.12-3.37,1.31-.82,2.78-1.24,4.41-1.24,1.53,0,2.9.38,4.11,1.14s2.14,1.81,2.81,3.16c.67,1.34,1.01,2.88,1.01,4.6,0,.25-.01.53-.04.82-.02.29-.07.62-.14.97h-14.2v-2.85h12.5l-1.17,1.1c0-1.22-.2-2.25-.6-3.1s-.97-1.51-1.7-1.98c-.73-.47-1.62-.7-2.66-.7s-2.04.25-2.87.76c-.83.51-1.46,1.22-1.91,2.13s-.67,1.99-.67,3.23.24,2.38.71,3.33c.47.95,1.14,1.69,2.02,2.21.87.52,1.88.78,3.01.78.94,0,1.81-.18,2.6-.53.79-.35,1.47-.89,2.04-1.6l2.05,2.24c-.83,1.01-1.82,1.79-2.97,2.32-1.16.53-2.4.8-3.72.8Z"/>
      <path d="M525.1,261.94v-3.2h7.97v3.2h-7.97ZM530.13,285.14v-26.4h3.29v26.4h-3.29Z"/>
      <path d="M541.46,285.14l7.43-10.84,1.17-.68c-.28.51-.62.95-1.01,1.33-.39.38-.87.67-1.45.88-.58.2-1.28.3-2.11.3-1.44,0-2.75-.37-3.93-1.1-1.18-.74-2.12-1.75-2.83-3.04s-1.06-2.78-1.06-4.45.39-3.24,1.17-4.62c.78-1.38,1.81-2.49,3.1-3.31,1.29-.82,2.73-1.24,4.34-1.24s3.06.41,4.36,1.22c1.3.81,2.33,1.9,3.08,3.25.76,1.36,1.13,2.88,1.13,4.58,0,2.33-.76,4.65-2.27,6.96l-7.22,10.77h-3.89ZM546.27,273.31c.99,0,1.88-.26,2.67-.78.79-.52,1.41-1.22,1.86-2.09s.67-1.84.67-2.91-.22-2.11-.67-2.99-1.07-1.57-1.86-2.07c-.79-.51-1.68-.76-2.67-.76s-1.88.25-2.67.76c-.79.51-1.42,1.2-1.89,2.09-.47.89-.71,1.88-.71,2.97s.24,2.07.71,2.93c.47.86,1.11,1.55,1.91,2.07s1.69.78,2.66.78Z"/>
      <path d="M556.72,276.05l8.96-17.31h3.75l-9.14,17.31h-3.58ZM556.72,278.26v-2.21l1.42-.99h17.42v3.2h-18.84ZM568.72,285.14v-17.42h3.29v17.42h-3.29Z"/>
      <path d="M585.47,285.53c-1.61,0-3.06-.32-4.37-.97-1.31-.65-2.41-1.59-3.31-2.83l2.27-2.43c.54.89,1.29,1.59,2.23,2.11.94.52,1.98.78,3.12.78s2.06-.22,2.85-.67c.79-.44,1.41-1.07,1.86-1.88s.67-1.75.67-2.82-.22-2.03-.67-2.81-1.09-1.4-1.91-1.85c-.83-.44-1.82-.67-2.97-.67-.4,0-.82.03-1.26.09-.44.06-.84.16-1.22.29l1.42-2.05c.45-.23.93-.41,1.45-.53.52-.13,1.04-.19,1.56-.19,1.32,0,2.51.33,3.56.99,1.05.66,1.89,1.59,2.51,2.78.62,1.19.94,2.57.94,4.15,0,1.67-.37,3.15-1.12,4.43-.74,1.28-1.77,2.28-3.06,3s-2.81,1.08-4.53,1.08ZM578.92,261.94v-3.2h14.98v2.17l-2.9,1.03h-12.07ZM582.74,271.87v-2.17l7.19-8.79h3.97l-7.4,8.98-3.75,1.98Z"/>
    </g>
    <g>
      <path d="M12.46,283.78c-1.75,0-3.38-.35-4.89-1.05-1.51-.7-2.83-1.67-3.97-2.93-1.13-1.26-2.02-2.71-2.66-4.36-.64-1.65-.96-3.41-.96-5.29s.32-3.67.96-5.31c.64-1.64,1.52-3.07,2.64-4.32,1.12-1.24,2.43-2.21,3.93-2.89,1.5-.68,3.12-1.03,4.87-1.03s3.37.34,4.87,1.03c1.5.69,2.81,1.65,3.95,2.89,1.13,1.24,2.02,2.69,2.66,4.34s.96,3.42.96,5.33-.32,3.64-.96,5.29-1.52,3.09-2.64,4.34c-1.12,1.24-2.43,2.21-3.93,2.91-1.5.7-3.11,1.05-4.83,1.05ZM12.39,280.35c1.75,0,3.29-.44,4.64-1.31,1.35-.88,2.4-2.08,3.17-3.61.77-1.53,1.15-3.29,1.15-5.27,0-1.47-.22-2.82-.65-4.05-.44-1.23-1.06-2.3-1.86-3.21-.8-.91-1.75-1.62-2.83-2.11-1.09-.49-2.29-.74-3.61-.74-1.75,0-3.29.43-4.62,1.29s-2.38,2.05-3.15,3.58c-.77,1.52-1.15,3.27-1.15,5.25,0,1.47.22,2.83.65,4.09.44,1.25,1.05,2.33,1.84,3.23.79.9,1.73,1.6,2.83,2.11,1.1.51,2.3.76,3.59.76Z"/>
      <path d="M35.62,283.7c-1.39,0-2.64-.32-3.74-.97-1.1-.65-1.95-1.57-2.57-2.76-.61-1.19-.92-2.57-.92-4.15v-10.5h3.19v10.35c0,.99.16,1.85.48,2.57s.78,1.27,1.4,1.65c.61.38,1.33.57,2.16.57,1.25,0,2.23-.42,2.94-1.27s1.06-2.02,1.06-3.52v-10.35h3.19v10.5c0,1.57-.31,2.96-.92,4.15-.61,1.19-1.46,2.11-2.55,2.76-1.09.65-2.33.97-3.72.97Z"/>
      <path d="M47.09,283.4v-18.07h3.19v18.07h-3.19ZM50.28,273.13l-1.2-.61c0-2.31.5-4.15,1.49-5.52.99-1.37,2.42-2.05,4.28-2.05.85,0,1.62.16,2.3.48.68.32,1.32.84,1.91,1.58l-2.09,2.32c-.35-.41-.74-.7-1.17-.88-.42-.18-.92-.27-1.49-.27-1.18,0-2.15.41-2.9,1.22-.76.81-1.13,2.05-1.13,3.73Z"/>
      <path d="M76.62,283.78c-1.91,0-3.55-.38-4.92-1.14-1.37-.76-2.58-1.86-3.65-3.31l2.27-2.43c.78,1.17,1.68,2.05,2.69,2.64,1.01.6,2.27.89,3.75.89s2.64-.34,3.52-1.03,1.33-1.62,1.33-2.82c0-.99-.22-1.79-.65-2.4-.44-.61-1.01-1.11-1.72-1.5-.71-.39-1.49-.74-2.34-1.05-.85-.3-1.7-.64-2.55-1.01-.85-.37-1.63-.83-2.35-1.39-.72-.56-1.29-1.27-1.72-2.15s-.64-2-.64-3.37c0-1.5.34-2.77,1.01-3.82.67-1.05,1.59-1.86,2.76-2.43s2.48-.86,3.95-.86c1.6,0,3.04.34,4.32,1.01,1.27.67,2.31,1.55,3.12,2.64l-2.27,2.43c-.73-.91-1.52-1.6-2.35-2.05-.84-.46-1.8-.68-2.89-.68-1.32,0-2.37.31-3.15.93-.78.62-1.17,1.49-1.17,2.61,0,.89.22,1.6.65,2.15.44.55,1.01,1.01,1.72,1.39.71.38,1.49.73,2.35,1.05.86.32,1.72.67,2.57,1.05.85.38,1.63.86,2.34,1.45.71.58,1.28,1.34,1.72,2.26.44.93.65,2.09.65,3.48,0,2.33-.75,4.16-2.25,5.48-1.5,1.32-3.54,1.98-6.11,1.98Z"/>
      <path d="M87.35,268.45v-3.12h11.47v3.12h-11.47ZM91.49,283.4v-25.64h3.19v25.64h-3.19Z"/>
      <path d="M101.94,283.4v-18.07h3.19v18.07h-3.19ZM105.12,273.13l-1.2-.61c0-2.31.5-4.15,1.49-5.52.99-1.37,2.42-2.05,4.28-2.05.85,0,1.62.16,2.3.48.68.32,1.32.84,1.91,1.58l-2.09,2.32c-.35-.41-.74-.7-1.17-.88-.42-.18-.92-.27-1.49-.27-1.18,0-2.15.41-2.9,1.22-.76.81-1.13,2.05-1.13,3.73Z"/>
      <path d="M123.39,283.78c-1.7,0-3.22-.41-4.55-1.24-1.33-.82-2.39-1.95-3.17-3.37-.78-1.42-1.17-3.03-1.17-4.83s.38-3.37,1.15-4.79c.77-1.42,1.81-2.54,3.12-3.37,1.31-.82,2.78-1.24,4.41-1.24,1.53,0,2.9.38,4.11,1.14,1.2.76,2.14,1.81,2.81,3.16.67,1.34,1.01,2.88,1.01,4.6,0,.25-.01.53-.04.82-.02.29-.07.62-.14.97h-14.2v-2.85h12.5l-1.17,1.1c0-1.22-.2-2.25-.6-3.1-.4-.85-.97-1.51-1.7-1.98-.73-.47-1.62-.7-2.66-.7s-2.04.25-2.87.76c-.83.51-1.46,1.22-1.91,2.13s-.67,1.99-.67,3.23.24,2.38.71,3.33c.47.95,1.14,1.69,2.02,2.21.87.52,1.88.78,3.01.78.94,0,1.81-.18,2.6-.53.79-.35,1.47-.89,2.04-1.6l2.05,2.24c-.83,1.01-1.82,1.79-2.97,2.32-1.16.53-2.4.8-3.72.8Z"/>
      <path d="M134.58,283.4v-18.07h3.19v18.07h-3.19ZM146.44,283.4v-10.54c0-1.37-.4-2.5-1.19-3.39-.79-.89-1.82-1.33-3.1-1.33-.85,0-1.61.2-2.27.61-.66.41-1.18.96-1.56,1.67s-.57,1.52-.57,2.43l-1.31-.8c0-1.37.28-2.59.85-3.65.57-1.06,1.36-1.91,2.37-2.53,1.01-.62,2.16-.93,3.43-.93s2.4.34,3.38,1.03c.98.68,1.75,1.58,2.32,2.68.57,1.1.85,2.28.85,3.52v11.22h-3.22Z"/>
      <path d="M160.96,283.09c-1.53,0-2.91-.39-4.12-1.18s-2.18-1.87-2.89-3.25c-.71-1.38-1.06-2.93-1.06-4.66s.35-3.26,1.04-4.62c.7-1.36,1.66-2.43,2.89-3.23,1.23-.8,2.6-1.2,4.11-1.2,1.32,0,2.5.28,3.52.84,1.03.56,1.83,1.34,2.43,2.34.59,1,.92,2.17.99,3.52v4.79c-.07,1.32-.41,2.48-1.01,3.48-.6,1-1.41,1.78-2.43,2.34-1.02.56-2.17.84-3.47.84ZM160.96,291.35c-1.75,0-3.28-.34-4.6-1.03-1.32-.69-2.4-1.65-3.22-2.89l2.09-2.24c.68.94,1.5,1.65,2.44,2.15.94.49,2.07.74,3.36.74,1.7,0,3.06-.49,4.07-1.46,1.01-.98,1.52-2.29,1.52-3.94v-4.49l.57-4.07-.57-4.03v-4.75h3.19v17.35c0,1.72-.37,3.24-1.12,4.55-.74,1.31-1.78,2.32-3.12,3.04-1.33.72-2.87,1.08-4.62,1.08ZM161.56,279.86c1.06,0,1.98-.24,2.76-.72.78-.48,1.39-1.16,1.82-2.04.44-.88.66-1.9.66-3.06s-.22-2.19-.66-3.06c-.44-.88-1.05-1.56-1.84-2.05-.79-.49-1.71-.74-2.74-.74s-2,.25-2.8.74c-.8.5-1.43,1.18-1.89,2.05-.46.88-.69,1.88-.69,3.02s.23,2.16.69,3.04c.46.89,1.1,1.58,1.91,2.07.81.49,1.74.74,2.78.74Z"/>
      <path d="M172.89,268.45v-3.12h11.47v3.12h-11.47ZM177.04,283.4v-25.64h3.19v25.64h-3.19Z"/>
      <path d="M187.48,283.4v-27.16h3.19v27.16h-3.19ZM199.34,283.4v-10.54c0-1.37-.4-2.5-1.19-3.39-.79-.89-1.82-1.33-3.1-1.33-.85,0-1.61.2-2.27.61-.66.41-1.18.96-1.56,1.67s-.57,1.52-.57,2.43l-1.31-.8c0-1.37.28-2.59.85-3.65.57-1.06,1.36-1.91,2.37-2.53,1.01-.62,2.16-.93,3.43-.93s2.4.3,3.38.91c.98.61,1.75,1.46,2.32,2.55.57,1.09.85,2.35.85,3.77v11.22h-3.22Z"/>
      <path d="M225.97,283.78c-1.75,0-3.38-.35-4.89-1.05-1.51-.7-2.83-1.67-3.97-2.93-1.13-1.26-2.02-2.71-2.66-4.36-.64-1.65-.96-3.41-.96-5.29s.32-3.67.96-5.31c.64-1.64,1.52-3.07,2.64-4.32,1.12-1.24,2.43-2.21,3.93-2.89,1.5-.68,3.12-1.03,4.87-1.03s3.37.34,4.87,1.03c1.5.69,2.81,1.65,3.95,2.89,1.13,1.24,2.02,2.69,2.66,4.34s.96,3.42.96,5.33-.32,3.64-.96,5.29-1.52,3.09-2.64,4.34c-1.12,1.24-2.43,2.21-3.93,2.91-1.5.7-3.11,1.05-4.83,1.05ZM225.9,280.35c1.75,0,3.29-.44,4.64-1.31,1.35-.88,2.4-2.08,3.17-3.61.77-1.53,1.15-3.29,1.15-5.27,0-1.47-.22-2.82-.65-4.05-.44-1.23-1.06-2.3-1.86-3.21-.8-.91-1.75-1.62-2.83-2.11-1.09-.49-2.29-.74-3.61-.74-1.75,0-3.29.43-4.62,1.29s-2.38,2.05-3.15,3.58c-.77,1.52-1.15,3.27-1.15,5.25,0,1.47.22,2.83.65,4.09.44,1.25,1.05,2.33,1.84,3.23.79.9,1.73,1.6,2.83,2.11,1.1.51,2.3.76,3.59.76Z"/>
      <path d="M249.12,283.7c-1.39,0-2.64-.32-3.74-.97-1.1-.65-1.95-1.57-2.57-2.76-.61-1.19-.92-2.57-.92-4.15v-10.5h3.19v10.35c0,.99.16,1.85.48,2.57s.78,1.27,1.4,1.65c.61.38,1.33.57,2.16.57,1.25,0,2.23-.42,2.94-1.27s1.06-2.02,1.06-3.52v-10.35h3.19v10.5c0,1.57-.31,2.96-.92,4.15-.61,1.19-1.46,2.11-2.55,2.76-1.09.65-2.33.97-3.72.97Z"/>
      <path d="M260.6,283.4v-18.07h3.19v18.07h-3.19ZM263.78,273.13l-1.2-.61c0-2.31.5-4.15,1.49-5.52.99-1.37,2.42-2.05,4.28-2.05.85,0,1.62.16,2.3.48.68.32,1.32.84,1.91,1.58l-2.09,2.32c-.35-.41-.74-.7-1.17-.88-.42-.18-.92-.27-1.49-.27-1.18,0-2.15.41-2.9,1.22-.76.81-1.13,2.05-1.13,3.73Z"/>
      <path d="M283.33,283.4v-26.4h3.33v26.4h-3.33ZM285.56,273.13v-3.12h6.69c.92,0,1.74-.2,2.46-.61.72-.41,1.29-.98,1.7-1.71.41-.74.62-1.61.62-2.62s-.21-1.89-.62-2.62c-.41-.74-.98-1.31-1.7-1.71-.72-.41-1.54-.61-2.46-.61h-6.69v-3.12h6.87c1.51,0,2.87.33,4.07.99,1.2.66,2.15,1.59,2.85,2.8.7,1.21,1.04,2.63,1.04,4.28s-.35,3.04-1.04,4.26c-.7,1.22-1.65,2.16-2.85,2.82-1.2.66-2.56.99-4.07.99h-6.87Z"/>
      <path d="M310.41,283.78c-1.56,0-2.96-.41-4.2-1.24s-2.22-1.95-2.94-3.37c-.72-1.42-1.08-3.02-1.08-4.79s.36-3.37,1.08-4.79c.72-1.42,1.7-2.55,2.94-3.39s2.64-1.26,4.2-1.26c1.27,0,2.41.29,3.42.86,1,.57,1.81,1.36,2.43,2.36s.96,2.16,1.03,3.48v5.44c-.07,1.29-.41,2.45-1.01,3.46-.6,1.01-1.41,1.81-2.43,2.38-1.02.57-2.16.86-3.43.86ZM310.94,280.54c1.58,0,2.86-.58,3.82-1.73.97-1.15,1.45-2.63,1.45-4.43,0-1.22-.22-2.29-.67-3.23-.45-.94-1.07-1.67-1.86-2.19-.79-.52-1.72-.78-2.78-.78s-2,.27-2.81.8c-.81.53-1.45,1.26-1.91,2.19-.46.93-.69,1.99-.69,3.18s.23,2.29.69,3.21c.46.93,1.1,1.65,1.93,2.19.83.53,1.77.8,2.83.8ZM316.01,283.4v-4.87l.6-4.41-.6-4.37v-4.41h3.22v18.07h-3.22Z"/>
      <path d="M323.87,283.4v-18.07h3.19v18.07h-3.19ZM327.06,273.13l-1.2-.61c0-2.31.5-4.15,1.49-5.52.99-1.37,2.42-2.05,4.28-2.05.85,0,1.62.16,2.3.48.68.32,1.32.84,1.91,1.58l-2.09,2.32c-.35-.41-.74-.7-1.17-.88-.42-.18-.92-.27-1.49-.27-1.18,0-2.15.41-2.9,1.22-.76.81-1.13,2.05-1.13,3.73Z"/>
      <path d="M336.47,268.45v-3.12h11.47v3.12h-11.47ZM340.62,283.4v-25.64h3.19v25.64h-3.19Z"/>
      <path d="M351.06,283.4v-18.07h3.19v18.07h-3.19ZM362.92,283.4v-10.54c0-1.37-.4-2.5-1.19-3.39-.79-.89-1.82-1.33-3.1-1.33-.85,0-1.61.2-2.27.61-.66.41-1.18.96-1.56,1.67s-.57,1.52-.57,2.43l-1.31-.8c0-1.37.28-2.59.85-3.65.57-1.06,1.36-1.91,2.37-2.53,1.01-.62,2.16-.93,3.43-.93s2.4.34,3.38,1.03c.98.68,1.75,1.58,2.32,2.68.57,1.1.85,2.28.85,3.52v11.22h-3.22Z"/>
      <path d="M378.25,283.78c-1.7,0-3.22-.41-4.55-1.24-1.33-.82-2.39-1.95-3.17-3.37-.78-1.42-1.17-3.03-1.17-4.83s.38-3.37,1.15-4.79c.77-1.42,1.81-2.54,3.12-3.37,1.31-.82,2.78-1.24,4.41-1.24,1.53,0,2.9.38,4.11,1.14,1.2.76,2.14,1.81,2.81,3.16.67,1.34,1.01,2.88,1.01,4.6,0,.25-.01.53-.04.82-.02.29-.07.62-.14.97h-14.2v-2.85h12.5l-1.17,1.1c0-1.22-.2-2.25-.6-3.1-.4-.85-.97-1.51-1.7-1.98-.73-.47-1.62-.7-2.66-.7s-2.04.25-2.87.76c-.83.51-1.46,1.22-1.91,2.13s-.67,1.99-.67,3.23.24,2.38.71,3.33c.47.95,1.14,1.69,2.02,2.21.87.52,1.88.78,3.01.78.94,0,1.81-.18,2.6-.53.79-.35,1.47-.89,2.04-1.6l2.05,2.24c-.83,1.01-1.82,1.79-2.97,2.32-1.16.53-2.4.8-3.72.8Z"/>
      <path d="M389.44,283.4v-18.07h3.19v18.07h-3.19ZM392.63,273.13l-1.2-.61c0-2.31.5-4.15,1.49-5.52.99-1.37,2.42-2.05,4.28-2.05.85,0,1.62.16,2.3.48.68.32,1.32.84,1.91,1.58l-2.09,2.32c-.35-.41-.74-.7-1.17-.88-.42-.18-.92-.27-1.49-.27-1.18,0-2.15.41-2.9,1.22-.76.81-1.13,2.05-1.13,3.73Z"/>
      <path d="M408.63,283.78c-.94,0-1.84-.13-2.69-.4-.85-.27-1.62-.65-2.32-1.14-.7-.49-1.3-1.08-1.82-1.77l2.05-2.21c.61.81,1.32,1.41,2.12,1.81.8.39,1.7.59,2.69.59s1.76-.18,2.3-.55c.54-.37.81-.88.81-1.54s-.22-1.17-.65-1.54c-.44-.37-1-.67-1.68-.91-.68-.24-1.41-.48-2.18-.7-.77-.23-1.49-.53-2.18-.91-.69-.38-1.25-.91-1.68-1.58-.44-.67-.66-1.55-.66-2.64s.24-2.04.73-2.83c.48-.8,1.17-1.41,2.07-1.84.9-.43,1.97-.65,3.22-.65,1.32,0,2.5.25,3.52.74s1.87,1.24,2.53,2.23l-2.05,2.21c-.5-.66-1.09-1.17-1.77-1.52-.69-.35-1.46-.53-2.34-.53-.92,0-1.62.18-2.11.53-.48.36-.73.82-.73,1.41s.21,1.08.64,1.41c.42.33.99.61,1.68.84.7.23,1.42.46,2.18.7.76.24,1.48.56,2.16.97.68.41,1.25.95,1.68,1.64.44.68.65,1.58.65,2.7,0,1.7-.56,3.04-1.68,4.03-1.12.99-2.63,1.48-4.51,1.48Z"/>
    </g>
  </g>
  <image width="512" height="512" transform="translate(713.47 244.91) scale(.13)" xlink:href="C:\Users\marke\Downloads\basket-ball (1).png"/>
</svg>